<svg width="147" height="26" viewBox="0 0 147 26" xmlns="http://www.w3.org/2000/svg">
    <path d="M109.805 3.788v18.353h10.43v-2.482H113v-5.493h6.02v-2.482H113V6.27h7.103V3.788h-10.298m24.771 15.87h-1.399v-10.8h-9.163v1.136c0 3.248-.212 7.446-1.321 9.665h-.977v5.518h2.905v-3.036h7.051v3.036h2.904V19.66zm-4.542 0h-4.436c.871-2.006 1.109-5.624 1.109-7.921v-.396h3.327v8.318m16.054-6.576c0-3.221-1.637-4.436-4.964-4.436-2.086 0-3.724.66-4.674 1.215v2.614c.845-.634 2.693-1.32 4.304-1.32 1.505 0 2.192.528 2.192 1.954v.74h-.502c-4.806 0-6.945 1.584-6.945 4.277s1.637 4.199 4.067 4.199c1.848 0 2.64-.608 3.248-1.242h.132c.026.344.132.793.237 1.057h3.064a33.312 33.312 0 01-.159-3.248v-5.81zm-3.142 5.889c-.396.58-1.136 1.056-2.245 1.056-1.32 0-1.98-.792-1.98-1.98 0-1.558 1.082-2.113 3.776-2.113h.449v3.037M9.378 22.141h3.195V3.788H7.925c-4.673 0-7.13 2.403-7.13 5.942 0 2.825 1.348 4.489 3.75 6.205L.373 22.141h3.46l4.647-6.945-1.61-1.083c-1.955-1.32-2.905-2.35-2.905-4.568 0-1.954 1.373-3.274 3.987-3.274h1.426v15.87zm61.606.264c1.452 0 2.482-.264 3.248-.819v-2.561c-.793.554-1.743.898-3.064.898-2.244 0-3.168-1.743-3.168-4.49 0-2.878 1.135-4.357 3.195-4.357 1.215 0 2.403.423 3.037.82V9.227c-.66-.37-1.823-.634-3.38-.634-4.014 0-6.1 2.879-6.1 6.919 0 4.436 2.033 6.892 6.232 6.892zm-19.647-1.162v-2.561c-.977.66-2.614 1.24-4.145 1.24-2.298 0-3.17-1.082-3.301-3.3h7.578v-1.664c0-4.62-2.033-6.364-5.175-6.364-3.83 0-5.651 2.931-5.651 6.945 0 4.621 2.27 6.866 6.285 6.866 2.006 0 3.485-.528 4.41-1.162zM22.554 8.858v5.255h-4.198V8.858h-3.142v13.283h3.142v-5.546h4.198v5.546h3.143V8.858h-3.142zm17.323 10.8h-1.4v-10.8h-9.162v1.136c0 3.248-.212 7.446-1.32 9.665h-.978v5.518h2.905v-3.036h7.05v3.036h2.905V19.66zm21.495 2.483h3.565l-5.044-7.156 4.436-6.127h-3.168l-4.437 6.127V8.858h-3.142v13.283h3.142v-6.523l4.648 6.523zM46.24 11.077c1.558 0 2.033 1.293 2.033 2.957v.264h-4.383c.079-2.113.845-3.222 2.35-3.222zm-10.906 8.582H30.9c.871-2.007 1.109-5.625 1.109-7.922v-.396h3.327v8.318m65.595-.138a11.198 11.198 0 01-7.436 2.823c-5.955 0-10.418-4.613-10.418-9.885 0-4.958 3.953-9.006 8.855-9.006 4.625 0 7.962 3.586 7.962 7.47 0 3.639-2.871 6.591-6.399 6.591-3.227 0-5.505-2.445-5.505-5.055 0-2.343 1.812-4.176 3.943-4.176 1.886 0 3.05 1.375 3.05 2.64 0 1.097-.772 1.76-1.488 1.76-.253 0-.35-.054-.451-.117.23-.297.345-.683.287-1.085a1.415 1.415 0 00-1.606-1.198c-.663.1-1.083.55-1.291.884a2.432 2.432 0 00-.361 1.292c0 1.863 1.736 3.068 3.422 3.068 2.464.001 4.316-2.15 4.316-4.605 0-3.004-2.603-5.483-5.878-5.483-3.803 0-6.771 3.22-6.771 7.02 0 4.306 3.67 7.897 8.335 7.897 5.156 0 9.227-4.293 9.227-9.436 0-5.528-4.68-10.31-10.79-10.31-6.501 0-11.683 5.36-11.683 11.85 0 6.928 5.817 12.727 13.246 12.727 3.553 0 6.813-1.334 9.301-3.529l-1.867-2.137zm-8.034-7.093c0-.003-.001-.001 0 0z"/>
</svg>
