<svg width="85" height="27" viewBox="0 0 85 27" xmlns="http://www.w3.org/2000/svg"><path d="M9.005 22.14H12.2V3.788H7.552c-4.674 0-7.13 2.403-7.13 5.941 0 2.826 1.347 4.49 3.75 6.206L0 22.14h3.46l4.647-6.944-1.611-1.083c-1.954-1.32-2.905-2.35-2.905-4.568 0-1.954 1.373-3.275 3.988-3.275h1.426v15.87m29.925-2.619a11.198 11.198 0 01-7.436 2.823c-5.955 0-10.418-4.613-10.418-9.885 0-4.958 3.953-9.006 8.854-9.006 4.626 0 7.963 3.586 7.963 7.47 0 3.639-2.871 6.591-6.399 6.591-3.227 0-5.505-2.445-5.505-5.055 0-2.343 1.812-4.176 3.943-4.176 1.886 0 3.05 1.375 3.05 2.64 0 1.097-.772 1.76-1.488 1.76-.253 0-.35-.054-.451-.117.23-.297.345-.683.287-1.085a1.415 1.415 0 00-1.606-1.198c-.663.1-1.083.55-1.291.884a2.432 2.432 0 00-.361 1.292c0 1.863 1.736 3.068 3.422 3.068 2.464.001 4.316-2.15 4.316-4.605 0-3.004-2.604-5.483-5.878-5.483-3.803 0-6.771 3.22-6.771 7.02 0 4.306 3.67 7.897 8.335 7.897 5.156 0 9.227-4.293 9.227-9.436 0-5.528-4.68-10.31-10.79-10.31-6.501 0-11.683 5.36-11.683 11.85 0 6.928 5.817 12.727 13.246 12.727 3.553 0 6.813-1.334 9.301-3.529l-1.867-2.137zm-8.034-7.093c0-.003-.001-.001 0 0m16.909-8.64V22.14h10.43v-2.482H51v-5.492h6.02v-2.482H51V6.27h7.103V3.788H47.805m24.77 15.87h-1.398v-10.8h-9.163v1.136c0 3.248-.212 7.446-1.321 9.665h-.977v5.518h2.905v-3.036h7.05v3.036h2.905V19.66zm-4.541 0h-4.436c.87-2.006 1.109-5.624 1.109-7.921v-.396h3.327v8.318m16.054-6.576c0-3.222-1.637-4.437-4.964-4.437-2.086 0-3.724.66-4.674 1.215v2.614c.845-.633 2.693-1.32 4.304-1.32 1.505 0 2.192.528 2.192 1.954v.74h-.502c-4.806 0-6.945 1.584-6.945 4.277 0 2.694 1.637 4.199 4.067 4.199 1.848 0 2.64-.607 3.248-1.241h.132c.026.343.132.792.237 1.056h3.064a33.312 33.312 0 01-.159-3.248v-5.81zm-3.142 5.888c-.396.581-1.136 1.057-2.245 1.057-1.32 0-1.98-.793-1.98-1.98 0-1.559 1.082-2.113 3.776-2.113h.449v3.036z"/></svg>