<svg xmlns="http://www.w3.org/2000/svg" width="14" height="14" viewBox="0 0 14 14" fill="#9598ad"><path d="M0 7a7 7 0 1014 0A7 7 0 000 7zm12.25 0A5.25 5.25 0 111.749 7 5.25 5.25 0 0112.25 7zM4.53 5.334c0-1.449 1.198-2.331 2.71-2.331 1.49 0 2.604.882 2.604 2.184v.042c0 1.239-.798 1.743-1.544 2.069l-.189.083c-.252.116-.336.252-.336.557 0 .15-.122.273-.273.273h-.735a.378.378 0 01-.378-.378c0-.714.252-1.165.914-1.46l.189-.083c.63-.284.966-.515.966-1.04 0-.567-.483-.945-1.218-.945-.756 0-1.323.378-1.323 1.092 0 .14-.113.252-.252.252h-.82a.315.315 0 01-.314-.315zm2.552 3.318c-.567 0-.997.41-.997.998 0 .588.43.997.997.997s.998-.41.998-.998c0-.587-.43-.997-.998-.997z"/></svg>
