<svg width="257" height="202" viewBox="0 0 257 202" fill="none" xmlns="http://www.w3.org/2000/svg">
<rect x="28.9453" y="0.171875" width="122.325" height="118.179" rx="15" transform="rotate(14.1776 28.9453 0.171875)" fill="white"/>
<path d="M223.848 114.384C216.748 129.403 204.398 141.311 189.128 147.862C155.917 162.076 120.052 147.041 107.477 117.669C101.718 104.523 101.42 89.6245 106.648 76.2509C111.875 62.8773 122.201 52.1231 135.353 46.3533C161.138 35.3146 188.278 47.3372 197.538 68.9549C206.218 89.2385 197.271 112.541 177.593 120.975C159.6 128.672 141.065 120.5 134.836 105.942C129.273 92.924 134.985 78.3442 146.905 73.2301C157.461 68.7624 167.18 73.6003 170.201 80.6432C172.83 86.7523 170.102 92.2968 166.103 94.0104C165.246 94.4666 164.257 94.6124 163.305 94.4231C163.746 92.7632 163.682 91.0097 163.119 89.3876C162.556 87.7655 161.521 86.349 160.146 85.3201C158.771 84.2913 157.12 83.697 155.404 83.6137C153.688 83.5304 151.987 83.962 150.517 84.8528C149.144 85.7513 147.98 86.9344 147.104 88.3219C146.227 89.7094 145.66 91.2689 145.439 92.8945C145.034 95.6319 145.405 98.4274 146.51 100.963C150.886 111.379 163.506 113.909 172.96 109.942C186.698 104.077 191.815 87.698 186.04 73.9859C178.878 57.2543 158.399 49.6774 140.183 57.4715C118.938 66.4937 110.128 91.5838 119.194 112.757C129.446 136.748 158.482 147.993 184.522 136.907C213.261 124.595 225.712 90.9701 213.459 62.3153C200.267 31.5146 162.776 16.0615 128.742 30.6182C92.511 46.1481 76.3741 88.3135 91.884 124.523C108.407 163.139 154.664 181.555 196.09 163.845C215.157 155.608 230.556 140.684 239.384 121.887L223.848 114.384Z" fill="#010101"/>
<ellipse cx="224.386" cy="43.2515" rx="15.8529" ry="15.2658" transform="rotate(-3.64829 224.386 43.2515)" fill="#DF0019"/>
</svg>
