<svg xmlns="http://www.w3.org/2000/svg" width="312" height="312" viewBox="0 0 312 312">
    <rect fill="#ffe200" width="312" height="312" rx="60"/>
    <path d="M145.839 27.937c-.3.2-3 .7-6 1-7.9.9-22.2 5.2-31.9 9.8-20.3 9.5-38.7 25.4-50.6 43.7-9.7 15.2-16.5 33.1-19.4 51.7-1 6.3-.8 32.9.4 38 4.8 22.3 10.1 36 19.8 50.5 19.7 29.7 48.4 49.6 83.2 57.6 11.2 2.5 15.1 2.9 31 2.9 17.3 0 23.4-.8 37.5-4.6 18-4.9 39.2-16.1 53.4-28.2l3.8-3.3-2.8-3c-1.6-1.7-5-5.4-7.6-8.3l-4.7-5.2-6.3 4.9c-18.1 13.9-36.6 21.8-58.8 24.9-5.8.8-25.2.8-31-.1-66.8-9.7-110.5-74.9-92.3-137.6 9.5-33 34.4-58.5 66.6-68.4 37-11.4 77.7 1.5 100.7 31.9 7.1 9.4 13.9 23.8 15.6 33 2.6 14.5 2.4 26.5-.6 37.9-9 35.3-37.9 58.9-72.5 59.5-32.4.6-59.9-19.6-67.6-49.6-6.2-24.6 2.7-49.4 22.9-63.5 19.4-13.5 46.6-11.5 62.7 4.5 18.8 18.9 16.1 49.4-5.5 61.1-15.5 8.5-34.9 1-37.8-14.5-1-5.3.1-9.4 3.6-13.2 3.4-3.6 4.4-3.4 6.3 1.2 2 4.7 5.5 7.2 11.2 7.8 12.4 1.3 18.9-12.6 11.1-23.8-12.1-17.6-40.7-13.4-50.9 7.4-10.2 20.9-.9 45.7 21 56.2 29.2 14 62.8-2 73.6-35 3-9 3.2-24.9.5-33.8-7.5-25.3-26.3-42.6-52.2-48-9.1-1.9-23.7-1.4-33.8 1.2-33.6 8.8-58.2 42.5-57 78.1.4 11.4.6 13.2 2.3 20 10.1 38.9 45.5 66 86.6 66.4 15.3.1 22-1 34.2-5.4 29.1-10.7 51.5-34.1 61.2-64 1.2-3.6 2.4-7.6 2.6-9 .3-1.4.9-4.8 1.4-7.5.5-2.8.9-9.7.9-15.5.1-39-20.8-74.7-55.5-94.8-8.8-5.2-19.9-9.7-28.9-11.8-3.8-.9-7.8-1.8-8.9-2.1-2.9-.7-30.9-1.6-31.5-1z"/>
</svg>
