<?xml version="1.0" standalone="no"?>
<!DOCTYPE svg PUBLIC "-//W3C//DTD SVG 20010904//EN"
 "http://www.w3.org/TR/2001/REC-SVG-20010904/DTD/svg10.dtd">
<svg version="1.0" xmlns="http://www.w3.org/2000/svg"
 width="700.000000pt" height="700.000000pt" viewBox="0 0 700.000000 700.000000"
 preserveAspectRatio="xMidYMid meet">
<metadata>
Created by potrace 1.14, written by Peter Selinger 2001-2017
</metadata>
<g transform="translate(0.000000,700.000000) scale(0.100000,-0.100000)"
fill="#000000" stroke="none">
<path d="M3264 6939 c-19 -6 -81 -17 -149 -24 -16 -2 -45 -6 -62 -9 -18 -3
-47 -8 -65 -11 -17 -3 -34 -8 -38 -10 -4 -2 -22 -7 -41 -10 -84 -14 -319 -88
-483 -151 -107 -41 -374 -171 -429 -208 -21 -14 -40 -26 -43 -26 -9 0 -245
-161 -313 -213 -101 -78 -251 -209 -315 -273 -135 -137 -232 -248 -307 -349
-24 -33 -46 -62 -49 -65 -16 -16 -97 -142 -157 -245 -120 -207 -235 -463 -304
-680 -16 -49 -33 -103 -38 -120 -17 -52 -70 -268 -76 -310 -4 -22 -11 -60 -16
-83 -19 -88 -24 -194 -24 -522 0 -420 6 -503 50 -687 140 -595 286 -937 577
-1346 397 -558 914 -977 1533 -1242 320 -136 720 -243 1020 -272 103 -10 762
-10 880 0 600 50 1327 344 1880 761 83 62 228 184 233 196 3 7 -11 22 -107
125 -82 87 -224 245 -256 283 -16 19 -34 31 -42 28 -8 -3 -69 -48 -136 -99
-336 -257 -631 -422 -967 -539 -63 -22 -122 -41 -130 -43 -8 -3 -49 -14 -90
-25 -95 -26 -345 -77 -430 -87 -84 -10 -728 -10 -800 0 -102 14 -230 38 -253
46 -12 5 -25 9 -30 9 -51 3 -294 77 -432 132 -404 160 -735 377 -1040 684
-401 402 -657 855 -790 1399 -19 76 -37 155 -39 175 -10 71 -18 127 -22 152
-23 133 -22 489 1 670 15 110 33 213 52 285 8 33 17 71 20 85 8 44 85 273 120
360 302 732 898 1290 1638 1534 102 33 276 78 353 91 168 27 248 34 417 36
113 1 276 -7 327 -16 9 -2 38 -7 65 -11 26 -3 57 -8 68 -10 11 -3 36 -7 55
-10 61 -10 215 -51 312 -84 369 -127 675 -317 943 -585 143 -143 149 -150 236
-268 206 -277 395 -704 424 -955 3 -27 7 -58 10 -70 12 -63 20 -204 20 -347 0
-192 -11 -309 -41 -435 -9 -36 -18 -76 -20 -89 -27 -138 -170 -475 -267 -630
-278 -444 -681 -751 -1167 -890 -58 -16 -132 -35 -165 -40 -33 -6 -71 -13 -85
-16 -92 -18 -368 -25 -495 -12 -155 15 -385 66 -480 107 -11 5 -64 28 -118 51
-301 129 -589 374 -770 654 -120 187 -224 452 -252 645 -4 25 -9 56 -11 70
-12 70 -11 352 2 439 46 308 157 556 353 794 218 263 517 438 848 496 140 25
373 22 493 -5 14 -3 35 -8 48 -10 53 -10 193 -59 262 -92 281 -133 512 -386
611 -669 23 -65 24 -69 45 -173 16 -77 21 -250 11 -330 -71 -534 -561 -901
-1042 -779 -272 70 -460 300 -459 561 1 77 5 95 33 152 42 86 124 168 164 164
26 -3 35 -14 74 -88 24 -47 58 -100 76 -118 41 -42 118 -79 194 -91 174 -28
305 35 382 185 28 54 33 74 37 162 10 226 -174 458 -434 546 -40 14 -72 23
-72 21 0 -2 -15 1 -32 6 -32 10 -187 13 -238 5 -116 -17 -195 -43 -302 -98
-329 -169 -526 -568 -485 -980 60 -595 620 -1065 1262 -1059 383 4 709 144
991 425 253 254 415 580 451 912 10 89 10 348 0 444 -6 66 -12 97 -32 187 -12
51 -70 205 -113 298 -178 386 -474 685 -857 866 -133 63 -318 124 -435 145
-14 3 -30 6 -37 9 -75 26 -519 26 -683 0 -77 -12 -102 -18 -175 -35 -183 -43
-422 -148 -586 -257 -455 -302 -780 -762 -908 -1286 -30 -120 -34 -143 -46
-242 -3 -27 -8 -66 -11 -85 -11 -76 -4 -384 12 -540 24 -242 148 -591 296
-839 69 -116 170 -259 223 -317 6 -6 37 -41 70 -79 114 -128 333 -311 495
-412 341 -211 712 -333 1130 -368 82 -8 411 -8 470 -1 25 3 72 8 105 11 258
26 648 163 940 333 107 61 195 122 344 237 148 114 379 365 512 555 201 287
382 709 441 1029 10 58 24 131 30 161 13 70 19 592 7 685 -17 135 -20 155 -39
257 -52 280 -138 530 -271 788 -67 129 -59 115 -156 264 -365 563 -956 1010
-1613 1222 -71 23 -276 77 -330 88 -14 2 -46 9 -71 15 -104 24 -825 49 -875
30z"/>
</g>
</svg>
