<svg width="24" height="24" viewBox="0 0 24 24" fill="none" xmlns="http://www.w3.org/2000/svg">
  <path d="M24 12C24 18.6274 18.6274 24 12 24C5.37258 24 0 18.6274 0 12C0 5.37258 5.37258 0 12 0C18.6274 0 24 5.37258 24 12Z" fill="#FFE45C"/>
  <path fill-rule="evenodd" clip-rule="evenodd" d="M17.8892 7.86279C18.3048 8.22648 18.3469 8.85824 17.9833 9.27387L11.5217 16.6585C11.3345 16.8725 11.065 16.9966 10.7807 16.9999C10.4964 17.0032 10.2241 16.8853 10.032 16.6757L6.64737 12.9834C6.27418 12.5763 6.30168 11.9437 6.7088 11.5705C7.11592 11.1973 7.74849 11.2248 8.12168 11.632L10.7518 14.5012L16.4781 7.95687C16.8418 7.54123 17.4735 7.49911 17.8892 7.86279Z" fill="black"/>
</svg>
