<svg width="16" height="16" viewBox="0 0 16 16" fill="none" xmlns="http://www.w3.org/2000/svg">
  <path d="M24 12C24 18.6274 18.6274 24 12 24C5.37258 24 0 18.6274 0 12C0 5.37258 5.37258 0 12 0C18.6274 0 24 5.37258 24 12Z" fill="#EDEFEF"/>
  <path fill-rule="evenodd" clip-rule="evenodd" d="M16.1436 7.8127C16.5341 8.20322 16.5341 8.83639 16.1436 9.22691L8.57039 16.8001C8.17986 17.1906 7.5467 17.1906 7.15617 16.8001C6.76565 16.4096 6.76565 15.7764 7.15617 15.3859L14.7293 7.8127C15.1199 7.42217 15.753 7.42217 16.1436 7.8127Z" fill="black"/>
  <path fill-rule="evenodd" clip-rule="evenodd" d="M16.1436 16.8001C15.7531 17.1906 15.1199 17.1906 14.7294 16.8001L7.15625 9.22691C6.76573 8.83639 6.76573 8.20322 7.15625 7.8127C7.54678 7.42217 8.17994 7.42217 8.57047 7.8127L16.1436 15.3859C16.5342 15.7764 16.5342 16.4096 16.1436 16.8001Z" fill="black"/>
</svg>
